<?xml version="1.0" encoding="UTF-8" standalone="no"?>
<!-- Created with Inkscape (http://www.inkscape.org/) -->

<svg
   xmlns:dc="http://purl.org/dc/elements/1.1/"
   xmlns:cc="http://creativecommons.org/ns#"
   xmlns:rdf="http://www.w3.org/1999/02/22-rdf-syntax-ns#"
   xmlns:svg="http://www.w3.org/2000/svg"
   xmlns="http://www.w3.org/2000/svg"
   xmlns:sodipodi="http://sodipodi.sourceforge.net/DTD/sodipodi-0.dtd"
   xmlns:inkscape="http://www.inkscape.org/namespaces/inkscape"
   id="svg2"
   version="1.1"
   inkscape:version="0.91 r13725"
   xml:space="preserve"
   width="640"
   height="640"
   viewBox="0 0 640 640"
   sodipodi:docname="ChimeraX-icon.svg"><metadata
     id="metadata8"><rdf:RDF><cc:Work
         rdf:about=""><dc:format>image/svg+xml</dc:format><dc:type
           rdf:resource="http://purl.org/dc/dcmitype/StillImage" /><dc:title></dc:title></cc:Work></rdf:RDF></metadata><defs
     id="defs6"><clipPath
       clipPathUnits="userSpaceOnUse"
       id="clipPath16"><path
         d="M 0,512 512,512 512,0 0,0 0,512 Z"
         id="path18"
         inkscape:connector-curvature="0" /></clipPath><filter
       style="color-interpolation-filters:sRGB;"
       inkscape:label="Drop Shadow"
       id="filter4186"><feFlood
         flood-opacity="0.498039"
         flood-color="rgb(0,0,0)"
         result="flood"
         id="feFlood4188" /><feComposite
         in="flood"
         in2="SourceGraphic"
         operator="in"
         result="composite1"
         id="feComposite4190" /><feGaussianBlur
         in="composite1"
         stdDeviation="4.7"
         result="blur"
         id="feGaussianBlur4192" /><feOffset
         dx="8"
         dy="-8"
         result="offset"
         id="feOffset4194" /><feComposite
         in="SourceGraphic"
         in2="offset"
         operator="over"
         result="composite2"
         id="feComposite4196" /></filter><filter
       style="color-interpolation-filters:sRGB;"
       inkscape:label="Drop Shadow"
       id="filter4198"><feFlood
         flood-opacity="0.498039"
         flood-color="rgb(0,0,0)"
         result="flood"
         id="feFlood4200" /><feComposite
         in="flood"
         in2="SourceGraphic"
         operator="in"
         result="composite1"
         id="feComposite4202" /><feGaussianBlur
         in="composite1"
         stdDeviation="4.7"
         result="blur"
         id="feGaussianBlur4204" /><feOffset
         dx="8"
         dy="8"
         result="offset"
         id="feOffset4206" /><feComposite
         in="SourceGraphic"
         in2="offset"
         operator="over"
         result="composite2"
         id="feComposite4208" /></filter></defs><sodipodi:namedview
     pagecolor="#ffffff"
     bordercolor="#666666"
     borderopacity="1"
     objecttolerance="10"
     gridtolerance="10"
     guidetolerance="10"
     inkscape:pageopacity="0"
     inkscape:pageshadow="2"
     inkscape:window-width="1542"
     inkscape:window-height="1044"
     id="namedview4"
     showgrid="false"
     inkscape:zoom="0.52149125"
     inkscape:cx="428.90827"
     inkscape:cy="320"
     inkscape:window-x="605"
     inkscape:window-y="192"
     inkscape:window-maximized="0"
     inkscape:current-layer="g10" /><g
     id="g10"
     inkscape:groupmode="layer"
     inkscape:label="Chimera-icon"
     transform="matrix(1.25,0,0,-1.25,0,640)"><g
       id="g12"
       style="filter:url(#filter4186)"><g
         id="g14"
         clip-path="url(#clipPath16)"><g
           id="g20"
           transform="translate(224.0718,77.5586)"><path
             d="m 0,0 c -98.377,0 -178.128,84.388 -178.128,188.49 0,104.1 79.751,188.49 178.128,188.49 98.377,0 178.128,-84.39 178.128,-188.49 C 178.128,84.388 98.377,0 0,0 m 19.737,417.441 c -120.178,0 -217.602,-98.087 -217.602,-219.083 0,-120.995 97.424,-219.083 217.602,-219.083 120.179,0 217.603,98.088 217.603,219.083 0,120.996 -97.424,219.083 -217.603,219.083"
             style="fill:#aad9f5;fill-opacity:1;fill-rule:nonzero;stroke:none"
             id="path22"
             inkscape:connector-curvature="0" /></g><g
           id="g24"
           transform="translate(369.6914,59.5215)"><path
             d="m 0,0 c -30.819,6.541 -71.937,23.896 -113.963,49.616 -76.291,46.683 -126.683,103.246 -112.552,126.338 7.057,11.532 28.872,12.532 58.447,4.829 1.011,-5.385 4.137,-10.345 9.178,-13.433 7.81,-4.777 17.545,-3.501 23.974,2.385 22.399,-8.866 47.09,-21.19 72.119,-36.506 21.908,-13.408 41.672,-27.625 58.391,-41.633 3.67,4.895 6.342,8.994 9.063,13.701 -17.053,12.289 -35.481,24.562 -54.998,36.506 -26.762,16.376 -53.133,30.635 -78.08,42.519 0.043,6.8 -3.298,13.454 -9.519,17.26 -7.805,4.777 -17.528,3.504 -23.958,-2.373 -64.818,26.596 -114.704,33.544 -126.688,13.958 -18.304,-29.909 58.69,-110.35 171.971,-179.668 C -59.127,-1.682 -3.342,-27.235 40.053,-39.965 L 0,0 Z"
             style="fill:#2e292a;fill-opacity:1;fill-rule:nonzero;stroke:none"
             id="path26"
             inkscape:connector-curvature="0" /></g></g></g><g
       transform="matrix(1,0,0,-1,-44.487803,29.147181)"
       style="font-style:normal;font-variant:normal;font-weight:500;font-stretch:normal;font-size:350px;line-height:125%;font-family:'TeX Gyre Chorus';-inkscape-font-specification:'TeX Gyre Chorus, Medium';text-align:start;letter-spacing:0px;word-spacing:0px;writing-mode:lr-tb;text-anchor:start;fill:#ff0000;fill-opacity:1;stroke:none;stroke-width:1px;stroke-linecap:butt;stroke-linejoin:miter;stroke-opacity:1;filter:url(#filter4198)"
       id="text4154"><path
         d="m 482.10589,-258.93099 c -3.85,0.35 -7.35,0.7 -8.4,0.7 -6.3,0.7 -11.9,1.05 -15.4,1.05 -13.3,0 -21.7,-4.9 -26.25,-15.05 -5.6,-13.3 -9.45,-28.35 -18.9,-73.85 l -3.15,-15.75 27.3,-32.9 c 15.4,-18.9 25.2,-25.9 36.4,-25.9 4.9,0 9.1,1.4 15.4,5.25 l 15.75,-24.85 c -7,-5.6 -11.9,-7.35 -19.6,-7.35 -15.05,0 -25.9,7 -42,28 l -35.35,44.1 -12.6,-63.7 c -1.05,-5.25 -3.15,-7.35 -7,-7.35 -5.25,0 -21.35,3.85 -54.25,12.95 l -8.05,10.15 c 3.85,-0.7 7.35,-1.4 8.4,-1.75 13.65,-2.8 14.35,-2.8 18.55,-2.8 10.15,0 15.4,4.9 18.9,16.45 5.95,21 10.85,41.3 14.7,62.65 -27.3,35.35 -46.55,59.15 -53.55,66.15 -9.45,9.45 -18.2,12.6 -35,12.6 -3.15,0 -5.25,0 -10.85,-0.7 l -17.15,26.25 c 8.05,1.05 11.9,1.4 15.75,1.4 10.15,0 21.35,-2.1 28.7,-5.6 10.85,-5.25 20.3,-14.7 40.25,-40.6 l 21,-26.95 14.7,-18.55 14.7,72.1 c 3.5,18.55 5.6,22.75 11.2,22.75 2.8,0 7,-0.7 11.9,-2.1 l 19.95,-3.5 28,-5.25 5.95,-8.05 z"
         style=""
         id="path4230" /></g></g></svg>