<?xml version="1.0" encoding="UTF-8"?>
<svg id="Layer_1" data-name="Layer 1" xmlns="http://www.w3.org/2000/svg" viewBox="0 0 250 250">
  <defs>
    <style>
      .cls-1 {
        fill: #000;
        stroke-width: 0px;
      }
    </style>
  </defs>
  <path class="cls-1" d="M211.14,103.42l-49.04-59.1c-23.42-28.23-65.45-32.14-93.68-8.71l-20.85,17.3c-28.23,23.42-32.14,65.45-8.71,93.68l49.04,59.1c23.42,28.23,65.45,32.14,93.68,8.71l20.85-17.3c28.23-23.42,32.14-65.45,8.71-93.68ZM76.83,45.73c22.64-18.79,56.35-15.65,75.14,6.99l13.38,16.13-46.43,38.53-11.05-13.32c1.19-3.81.52-8.13-2.22-11.42l-17.85-21.51c-2.73-3.3-6.85-4.76-10.82-4.29l-5.53-6.66,5.36-4.45ZM98.46,93.02c-1.44,1.2-3.59.99-4.78-.44l-17.85-21.51c-1.19-1.44-1-3.58.44-4.78,1.44-1.2,3.59-.99,4.78.44l17.85,21.51c1.19,1.44,1,3.58-.44,4.78ZM48.99,138.18c-18.79-22.64-15.65-56.35,6.99-75.14l5.36-4.45,5.53,6.66c-1.19,3.81-.52,8.13,2.22,11.42l17.85,21.51c2.73,3.3,6.85,4.76,10.82,4.29l11.05,13.32-46.43,38.53-13.38-16.13ZM194.02,186.96l-20.85,17.3c-22.64,18.79-56.35,15.65-75.14-6.99l-27.25-32.84,102.98-85.46,27.25,32.84c18.79,22.64,15.65,56.35-6.99,75.14Z"/>
</svg>