<?xml version="1.0" encoding="UTF-8"?>
<svg id="Layer_1" data-name="Layer 1" xmlns="http://www.w3.org/2000/svg" viewBox="0 0 250 250">
  <defs>
    <style>
      .cls-1 {
        fill: #000;
        stroke-width: 0px;
      }
    </style>
  </defs>
  <path class="cls-1" d="M229.24,197.14c-1.29-16.5-11.72-33.26-29.41-47.21l-4.34-3.41c-2.93-2.29-4.26-3.32-6.05-4.91-3.22-2.86-5.29-5.41-6.4-6.78-3.36-4.15-6.13-8.9-8.3-14.06,2.26-3.06,3.54-6.46,3.39-10.21-.11-2.95-1.22-7.37-5.86-11.65-3.87-3.58-9.65-6.43-16.62-8.53,5.36-5.22,12.43-14.47,13.21-27.64.14-2.58.43-16.05-8.37-26.95-17.97-22.25-56.46-14.89-67.83-12.1-28.33,6.96-72.96,32.29-72.08,70.6.46,20.09,13.7,34.59,18.69,40.06,20.23,22.14,47.07,25.91,60.04,26.33,8.17,8.35,16.51,16.74,25,25.15,14.05,13.94,28.65,28.03,43.38,41.9,1.14,1.07,2.64,1.66,4.2,1.67,3.07,0,7.8.04,13.57.11l9.35.14c3.62.06,6.64.11,9.21.11,8.67,0,12.09-.59,15.93-3.38,5-3.65,10.67-11.67,9.32-29.23ZM165.85,111.02c.18,4.77-15,14.7-43.49,15.9-21.59.9-37.19-4.08-42.62-9.09-.85-.79-1.87-1.96-1.92-3.09h0c-.18-4.78,15-14.71,43.49-15.9,1.72-.07,3.4-.1,5.05-.1,18.93,0,32.58,4.58,37.57,9.18.85.79,1.88,1.96,1.92,3.1ZM120.8,86.57c-24.45,1.01-48.9,8.95-54.21,22.47-.25-2.15-.29-4.28-.04-6.35,2.08-16.98,21.02-26.97,30.16-31.79.92-.49,22.87-11.9,43.6-6.76,3.43.86,7.82,2.43,9.26,5.09,1.72,3.18.45,7.35-.18,9-.12.32-.09.64-.16.96-2.48,2.9-4.85,4.79-5.72,5.42-1.01.73-1.62,1.74-2.03,2.82-6.45-.82-13.4-1.17-20.69-.87ZM212.69,216.44c-1.57,1.14-4.96,1.15-17.7.91l-9.4-.14c-4.47-.06-8.32-.09-11.26-.1-14.06-13.26-27.97-26.71-41.39-40.02-9.06-8.98-17.93-17.92-26.63-26.82-1.16-1.18-2.74-1.85-4.39-1.85-9.98-.02-35.18-2.22-53.6-22.38-4.53-4.95-15.12-16.56-15.47-32.05-.68-29.47,36.28-51.88,62.73-58.38,6.82-1.67,41.56-9.17,55.34,7.9,4.18,5.18,5.3,11.4,5.58,15.18-3.16-2.85-7.46-5.03-13.21-6.46-24.81-6.16-49.58,6.37-52.34,7.82-10.94,5.78-33.72,17.79-36.59,41.14-.87,7.1.24,14.39,3.31,21.66.92,2.17,3,3.62,5.35,3.74l8.62.44c8.55,7.72,25.68,12.28,45.65,12.28,1.84,0,3.7-.04,5.58-.12,15.8-.66,31.59-4.21,42.22-10.28,2.36,4.89,5.07,9.54,8.39,13.64,1.24,1.54,3.82,4.72,7.81,8.26,1.96,1.74,3.42,2.88,6.63,5.39l4.32,3.39c8.65,6.82,23.37,20.91,24.75,38.51,1,12.98-2.68,17.15-4.3,18.33Z"/>
</svg>