<?xml version="1.0" encoding="UTF-8" standalone="no"?>

<!--
=== UCSF ChimeraX Copyright ===
Copyright 2016 Regents of the University of California.
All rights reserved.  This software provided pursuant to a
license agreement containing restrictions on its disclosure,
duplication and use.  For details see:
http://www.rbvi.ucsf.edu/chimerax/docs/licensing.html
This notice must be embedded in or attached to all copies,
including partial copies, of the software or any revisions
or derivations thereof.
=== UCSF ChimeraX Copyright ===
-->

<!-- Created with Inkscape (http://www.inkscape.org/) -->

<svg
   xmlns:dc="http://purl.org/dc/elements/1.1/"
   xmlns:cc="http://creativecommons.org/ns#"
   xmlns:rdf="http://www.w3.org/1999/02/22-rdf-syntax-ns#"
   xmlns:svg="http://www.w3.org/2000/svg"
   xmlns="http://www.w3.org/2000/svg"
   xmlns:sodipodi="http://sodipodi.sourceforge.net/DTD/sodipodi-0.dtd"
   xmlns:inkscape="http://www.inkscape.org/namespaces/inkscape"
   height="19.738766"
   width="19.738766"
   viewBox="0 0 19.738766 19.738767"
   id="svg6070"
   version="1.1"
   inkscape:version="0.91 r13725"
   sodipodi:docname="zoom-minus.svg">
  <defs
     id="defs6076" />
  <sodipodi:namedview
     pagecolor="#ffffff"
     bordercolor="#666666"
     borderopacity="1"
     objecttolerance="10"
     gridtolerance="10"
     guidetolerance="10"
     inkscape:pageopacity="0"
     inkscape:pageshadow="2"
     inkscape:window-width="1549"
     inkscape:window-height="939"
     id="namedview6074"
     showgrid="false"
     inkscape:zoom="10.148731"
     inkscape:cx="1.9221507"
     inkscape:cy="9.6616121"
     inkscape:window-x="571"
     inkscape:window-y="373"
     inkscape:window-maximized="0"
     inkscape:current-layer="svg6070"
     fit-margin-top="0"
     fit-margin-left="0"
     fit-margin-right="0"
     fit-margin-bottom="0"
     units="px" />
  <metadata
     id="metadata6072">
    <rdf:RDF>
      <cc:Work
         rdf:about="">
        <dc:format>image/svg+xml</dc:format>
        <dc:type
           rdf:resource="http://purl.org/dc/dcmitype/StillImage" />
        <dc:title></dc:title>
      </cc:Work>
    </rdf:RDF>
  </metadata>
  <path
     inkscape:connector-curvature="0"
     id="path336"
     d="m 4.9999995,10.000001 7.5000015,0 0,-2.5000002 -7.5000015,0 z m 0,0"
     style="fill:#1c1c19;fill-opacity:1;fill-rule:nonzero;stroke:none" />
  <path
     inkscape:connector-curvature="0"
     id="path338"
     d="M 19.555664,16.904302 16.113276,13.461915 C 16.987301,12.104489 17.500001,10.488276 17.500001,8.7500008 17.500001,3.916013 13.583988,0 8.75,0 3.9160119,0 -9.5367443e-7,3.916013 -9.5367443e-7,8.7500008 -9.5367443e-7,13.583989 3.9160119,17.500002 8.75,17.500002 c 1.738275,0 3.349612,-0.5127 4.711914,-1.386725 l 3.442387,3.442388 c 0.244137,0.244137 0.63965,0.244137 0.883787,0 l 1.767576,-1.767576 c 0.244137,-0.244137 0.244137,-0.63965 0,-0.883787 z M 8.75,15.000002 c -3.4472629,0 -6.2500007,-2.802738 -6.2500007,-6.2500012 0,-3.4472627 2.8027378,-6.2500005 6.2500007,-6.2500005 3.447264,0 6.250001,2.8027378 6.250001,6.2500005 0,3.4472632 -2.802737,6.2500012 -6.250001,6.2500012"
     style="fill:#1c1c19;fill-opacity:1;fill-rule:nonzero;stroke:none" />
</svg>
