<?xml version="1.0" encoding="UTF-8" standalone="no"?>
<!-- Created with Inkscape (http://www.inkscape.org/) -->

<svg
   xmlns:dc="http://purl.org/dc/elements/1.1/"
   xmlns:cc="http://creativecommons.org/ns#"
   xmlns:rdf="http://www.w3.org/1999/02/22-rdf-syntax-ns#"
   xmlns:svg="http://www.w3.org/2000/svg"
   xmlns="http://www.w3.org/2000/svg"
   xmlns:sodipodi="http://sodipodi.sourceforge.net/DTD/sodipodi-0.dtd"
   xmlns:inkscape="http://www.inkscape.org/namespaces/inkscape"
   width="5.5711021mm"
   height="5.5711551mm"
   viewBox="0 0 19.740126 19.740313"
   id="svg4349"
   version="1.1"
   inkscape:version="0.91 r13725"
   sodipodi:docname="search.svg">
  <defs
     id="defs4351" />
  <sodipodi:namedview
     id="base"
     pagecolor="#ffffff"
     bordercolor="#666666"
     borderopacity="1.0"
     inkscape:pageopacity="0.0"
     inkscape:pageshadow="2"
     inkscape:zoom="1"
     inkscape:cx="40.754162"
     inkscape:cy="78.441582"
     inkscape:document-units="px"
     inkscape:current-layer="layer1"
     showgrid="false"
     fit-margin-top="0"
     fit-margin-left="0"
     fit-margin-right="0"
     fit-margin-bottom="0"
     inkscape:window-width="739"
     inkscape:window-height="666"
     inkscape:window-x="65"
     inkscape:window-y="24"
     inkscape:window-maximized="0" />
  <metadata
     id="metadata4354">
    <rdf:RDF>
      <cc:Work
         rdf:about="">
        <dc:format>image/svg+xml</dc:format>
        <dc:type
           rdf:resource="http://purl.org/dc/dcmitype/StillImage" />
        <dc:title></dc:title>
      </cc:Work>
    </rdf:RDF>
  </metadata>
  <g
     inkscape:label="Layer 1"
     inkscape:groupmode="layer"
     id="layer1"
     transform="translate(-278.70137,-596.77776)">
    <path
       d="m 298.25962,613.68401 -3.44375,-3.4425 c 0.8725,-1.3625 1.385,-2.97625 1.385,-4.71375 0,-4.8325 -3.91625,-8.75 -8.75,-8.75 -4.832,0 -8.7495,3.9175 -8.7495,8.75 0,4.8325 3.9175,8.75 8.7495,8.75 1.7375,0 3.3525,-0.5125 4.7125,-1.385 l 3.44375,3.4425 c 0.2425,0.24375 0.64125,0.24375 0.88375,0 l 1.76875,-1.7675 c 0.2425,-0.24375 0.2425,-0.64125 0,-0.88375 z m -10.80875,-1.90625 c -3.445,0 -6.2495,-2.80375 -6.2495,-6.25 0,-3.44625 2.8045,-6.25 6.2495,-6.25 3.44625,0 6.25,2.80375 6.25,6.25 0,3.44625 -2.80375,6.25 -6.25,6.25"
       style="fill:#1d1d1b;fill-opacity:1;fill-rule:nonzero;stroke:none"
       id="path54"
       inkscape:connector-curvature="0" />
  </g>
</svg>
