<?xml version="1.0" encoding="UTF-8"?>
<svg id="Layer_1" data-name="Layer 1" xmlns="http://www.w3.org/2000/svg" viewBox="0 0 250 250">
  <defs>
    <style>
      .cls-1 {
        fill: #000;
        stroke-width: 0px;
      }
    </style>
  </defs>
  <path class="cls-1" d="M82.14,137.44c4.04.53,8.29.96,12.97,1.27-4.68-.43-8.93-.85-12.97-1.27Z"/>
  <path class="cls-1" d="M125,21.32c-21.16,0-27.75,47.21-29.78,74.01-26.69,2.02-73.91,8.61-73.91,29.67,0,57.21,46.47,103.68,103.68,103.68s103.68-46.47,103.68-103.68S182.21,21.32,125,21.32ZM103.2,110.75l7.12-.43v-.11l20.63,20.42,8.61,8.51v.43c-11.91.53-24.67.43-36.37-.32-2.76-.11-5.53-.32-8.08-.53-4.68-.32-8.93-.74-12.97-1.27-2.13-.21-4.15-.43-6.06-.85-.64-.11-1.17-.11-1.7-.21-5.53-.85-10.42-1.81-14.57-2.76-1.06-.21-2.13-.43-3.08-.74-10.74-2.87-16.8-5.85-18.93-7.87,4.25-4.04,24.03-11.8,65.4-14.25ZM125,212.73c-41.9,0-76.99-29.56-85.71-68.8,7.66,3.19,17.12,5.53,26.69,7.23,2.02.32,3.93.64,5.96.96,2.87.43,5.74.85,8.51,1.17,2.76.32,5.53.64,8.08.85,1.17.1,2.23.21,3.3.32,1.38.11,2.76.21,4.04.32,2.34.21,4.47.32,6.38.43,7.34.43,14.89.64,22.76.64s15.42-.21,22.65-.64l7.12-.43.43-7.02c.43-7.34.64-14.89.64-22.76s-.21-15.42-.64-22.65c-.53-9.15-1.7-22.76-4.15-36.37-.21-1.7-.53-3.3-.96-5-1.59-7.76-3.62-15.31-6.27-21.69,39.35,8.61,68.91,43.81,68.91,85.71,0,48.39-39.35,87.73-87.73,87.73Z"/>
</svg>