<?xml version="1.0" encoding="UTF-8" standalone="no"?>
<!-- Created with Inkscape (http://www.inkscape.org/) -->

<svg
   xmlns:dc="http://purl.org/dc/elements/1.1/"
   xmlns:cc="http://creativecommons.org/ns#"
   xmlns:rdf="http://www.w3.org/1999/02/22-rdf-syntax-ns#"
   xmlns:svg="http://www.w3.org/2000/svg"
   xmlns="http://www.w3.org/2000/svg"
   xmlns:sodipodi="http://sodipodi.sourceforge.net/DTD/sodipodi-0.dtd"
   xmlns:inkscape="http://www.inkscape.org/namespaces/inkscape"
   id="svg4175"
   version="1.1"
   inkscape:version="0.91 r13725"
   xml:space="preserve"
   width="640"
   height="640"
   viewBox="0 0 640 640"
   sodipodi:docname="Chimera2-shadow2.svg"
   inkscape:export-filename="/home/gregc/chimera-icon/g4185.png"
   inkscape:export-xdpi="88.230003"
   inkscape:export-ydpi="88.230003"><metadata
     id="metadata4181"><rdf:RDF><cc:Work
         rdf:about=""><dc:format>image/svg+xml</dc:format><dc:type
           rdf:resource="http://purl.org/dc/dcmitype/StillImage" /><dc:title></dc:title></cc:Work></rdf:RDF></metadata><defs
     id="defs4179"><clipPath
       clipPathUnits="userSpaceOnUse"
       id="clipPath4189"><path
         d="M 0,512 512,512 512,0 0,0 0,512 Z"
         id="path4191"
         inkscape:connector-curvature="0" /></clipPath><filter
       style="color-interpolation-filters:sRGB;"
       inkscape:label="Drop Shadow"
       id="filter4944"><feFlood
         flood-opacity="0.498039"
         flood-color="rgb(0,0,0)"
         result="flood"
         id="feFlood4946" /><feComposite
         in="flood"
         in2="SourceGraphic"
         operator="in"
         result="composite1"
         id="feComposite4948" /><feGaussianBlur
         in="composite1"
         stdDeviation="4.7"
         result="blur"
         id="feGaussianBlur4950" /><feOffset
         dx="8"
         dy="8"
         result="offset"
         id="feOffset4952" /><feComposite
         in="SourceGraphic"
         in2="offset"
         operator="over"
         result="composite2"
         id="feComposite4954" /></filter><filter
       style="color-interpolation-filters:sRGB;"
       inkscape:label="Drop Shadow"
       id="filter5016"><feFlood
         flood-opacity="0.498039"
         flood-color="rgb(0,0,0)"
         result="flood"
         id="feFlood5018" /><feComposite
         in="flood"
         in2="SourceGraphic"
         operator="in"
         result="composite1"
         id="feComposite5020" /><feGaussianBlur
         in="composite1"
         stdDeviation="4.7"
         result="blur"
         id="feGaussianBlur5022" /><feOffset
         dx="8"
         dy="-8"
         result="offset"
         id="feOffset5024" /><feComposite
         in="SourceGraphic"
         in2="offset"
         operator="over"
         result="composite2"
         id="feComposite5026" /></filter></defs><sodipodi:namedview
     pagecolor="#ffffff"
     bordercolor="#666666"
     borderopacity="1"
     objecttolerance="10"
     gridtolerance="10"
     guidetolerance="10"
     inkscape:pageopacity="0"
     inkscape:pageshadow="2"
     inkscape:window-width="1465"
     inkscape:window-height="1035"
     id="namedview4177"
     showgrid="false"
     inkscape:zoom="0.5"
     inkscape:cx="231.38416"
     inkscape:cy="320"
     inkscape:window-x="294"
     inkscape:window-y="239"
     inkscape:window-maximized="0"
     inkscape:current-layer="g4183" /><g
     id="g4183"
     inkscape:groupmode="layer"
     inkscape:label="Chimera"
     transform="matrix(1.25,0,0,-1.25,0,640)"><g
       id="g4185"
       style="filter:url(#filter5016)"><g
         id="g4187"
         clip-path="url(#clipPath4189)"><g
           id="g4193"
           transform="translate(224.0718,77.5586)"><path
             d="m 0,0 c -98.377,0 -178.128,84.388 -178.128,188.49 0,104.1 79.751,188.49 178.128,188.49 98.377,0 178.128,-84.39 178.128,-188.49 C 178.128,84.388 98.377,0 0,0 m 19.737,417.441 c -120.178,0 -217.602,-98.087 -217.602,-219.083 0,-120.995 97.424,-219.083 217.602,-219.083 120.179,0 217.603,98.088 217.603,219.083 0,120.996 -97.424,219.083 -217.603,219.083"
             style="fill:#aad9f5;fill-opacity:1;fill-rule:nonzero;stroke:none"
             id="path4195"
             inkscape:connector-curvature="0" /></g><g
           id="g4197"
           transform="translate(369.6914,59.5215)"><path
             d="m 0,0 c -30.819,6.541 -71.937,23.896 -113.963,49.616 -76.291,46.683 -126.683,103.246 -112.552,126.338 7.057,11.532 28.872,12.532 58.447,4.829 1.011,-5.385 4.137,-10.345 9.178,-13.433 7.81,-4.777 17.545,-3.501 23.974,2.385 22.399,-8.866 47.09,-21.19 72.119,-36.506 21.908,-13.408 41.672,-27.625 58.391,-41.633 3.67,4.895 6.342,8.994 9.063,13.701 -17.053,12.289 -35.481,24.562 -54.998,36.506 -26.762,16.376 -53.133,30.635 -78.08,42.519 0.043,6.8 -3.298,13.454 -9.519,17.26 -7.805,4.777 -17.528,3.504 -23.958,-2.373 -64.818,26.596 -114.704,33.544 -126.688,13.958 -18.304,-29.909 58.69,-110.35 171.971,-179.668 C -59.127,-1.682 -3.342,-27.235 40.053,-39.965 L 0,0 Z"
             style="fill:#2e292a;fill-opacity:1;fill-rule:nonzero;stroke:none"
             id="path4199"
             inkscape:connector-curvature="0" /></g></g></g><g
       transform="scale(1,-1)"
       style="font-style:normal;font-variant:normal;font-weight:normal;font-stretch:normal;font-size:320px;line-height:125%;font-family:Mallige;-inkscape-font-specification:'Mallige, Normal';text-align:start;letter-spacing:0px;word-spacing:0px;writing-mode:lr-tb;text-anchor:start;fill:#c8000a;fill-opacity:1;stroke:none;stroke-width:1px;stroke-linecap:butt;stroke-linejoin:miter;stroke-opacity:1;opacity:1"
       id="text4745"><path
         d="m 330.21875,-340.21249 q 0.15625,15.9375 -9.84375,26.875 -16.09375,17.5 -67.96875,45.46875 -50.625,27.34375 -81.875,50.9375 l 4.53125,4.375 121.25,-21.09375 q -6.09375,20 -11.875,27.8125 -9.0625,12.8125 -26.5625,16.09375 -46.71875,8.59375 -73.59375,8.90625 -15.15625,0.15625 -20.15625,-3.4375 -12.5,-9.375 -12.8125,-33.59375 -0.15625,-17.96875 48.4375,-49.375 15.46875,-10 66.5625,-37.65625 47.03125,-25.625 47.03125,-45.15625 0,-11.5625 -15.15625,-11.875 -25.3125,-0.625 -90.46875,32.03125 l 0,5.15625 21.40625,2.8125 q 9.53125,0 9.53125,3.28125 0,0.9375 -5,2.8125 l -35.3125,6.71875 q -2.1875,0 -5,0.9375 -2.1875,0.15625 -4.84375,0.625 -4.21875,0 -4.53125,-9.53125 -0.15625,-6.71875 6.09375,-21.40625 5.15625,-12.03125 11.25,-18.90625 12.65625,-14.375 44.84375,-23.125 26.09375,-7.03125 51.40625,-7.65625 17.8125,-0.3125 25,8.59375 7.34375,9.375 7.65625,39.375 z"
         style="fill:#c8000a;fill-opacity:1;stroke:none;stroke-opacity:1;filter:url(#filter4944)"
         id="path4750" /></g></g></svg>